<svg width="158" height="157" viewBox="0 0 158 157" fill="none" xmlns="http://www.w3.org/2000/svg">
<path d="M62.9153 130.622C62.0439 130.144 61.4707 129.547 60.8359 128.789C60.6083 128.524 60.3806 128.258 60.146 127.984C58.8923 125.566 59.2634 123.057 60.0253 120.544C60.1095 120.249 60.1937 119.953 60.2805 119.649C60.5704 118.637 60.8686 117.628 61.1665 116.618C61.3841 115.865 61.6011 115.111 61.8175 114.357C62.2504 112.85 62.6858 111.345 63.1236 109.84C64.1781 106.215 65.2157 102.585 66.2519 98.9541C66.6223 97.6566 66.9928 96.359 67.3633 95.0615C67.4574 94.7321 67.5514 94.4027 67.6484 94.0633C68.7269 90.2869 69.8091 86.5115 70.8916 82.7362C70.9914 82.388 71.0912 82.0399 71.1941 81.6812C71.6001 80.2652 72.006 78.8492 72.4121 77.4331C73.5371 73.5097 74.6615 69.5861 75.7859 65.6625C76.1874 64.2613 76.589 62.8601 76.9905 61.4589C77.0883 61.1177 77.1861 60.7765 77.2868 60.4249C77.852 58.4527 78.4174 56.4804 78.9828 54.5082C79.1611 53.8863 79.3394 53.2644 79.5176 52.6425C79.947 51.1442 80.3768 49.646 80.8076 48.1481C81.5725 45.4863 82.3328 42.8235 83.076 40.1555C83.4104 38.9559 83.747 37.7569 84.0837 36.5579C84.2413 35.9939 84.3977 35.4296 84.5529 34.8649C84.7662 34.0889 84.9834 33.3141 85.2015 32.5394C85.2624 32.3132 85.3234 32.0869 85.3863 31.8538C86.0332 29.5861 87.1607 28.0636 89.0469 26.6778C90.9157 25.7989 92.8276 25.7079 94.8 26.3329C96.6012 27.1513 97.5708 28.0337 98.5527 29.7442C99.7357 33.2931 98.3322 37.0479 97.33 40.4724C97.1647 41.0514 96.9999 41.6306 96.8356 42.2099C96.388 43.7823 95.934 45.3527 95.4788 46.9228C94.9939 48.5997 94.515 50.2782 94.0355 51.9566C93.1178 55.1651 92.1947 58.3719 91.2697 61.5783C90.2507 65.1114 89.2374 68.6462 88.2248 72.1811C86.9315 76.6959 85.6368 81.2103 84.3361 85.7229C84.2373 86.0655 84.1386 86.4081 84.0368 86.7611C83.9382 87.1035 83.8395 87.4458 83.7378 87.7986C83.5388 88.4889 83.3399 89.1793 83.1409 89.8696C83.0428 90.2099 82.9447 90.5502 82.8437 90.9008C81.4412 95.768 80.0514 100.639 78.6705 105.512C78.0974 107.533 77.5224 109.553 76.9474 111.573C76.4071 113.473 75.87 115.373 75.3354 117.274C75.0075 118.437 74.6764 119.599 74.3444 120.761C74.1925 121.295 74.0418 121.83 73.8927 122.365C72.238 128.296 72.238 128.296 70.3011 129.967C70.0995 130.078 69.8979 130.189 69.6902 130.303C69.487 130.42 69.2838 130.536 69.0745 130.657C67.0774 131.63 64.9289 131.477 62.9153 130.622Z" fill="#3584D8"/>
<path d="M40.2144 111.425C39.7187 111.438 39.7187 111.438 39.213 111.452C36.4718 111.089 34.7912 109.361 32.9272 107.478C32.6626 107.216 32.398 106.953 32.1254 106.683C31.4054 105.967 30.6881 105.249 29.9722 104.529C29.2196 103.774 28.4639 103.021 27.7088 102.268C26.4416 101.003 25.1769 99.735 23.9138 98.466C22.4571 97.0026 20.996 95.5437 19.5326 94.0871C18.2722 92.8323 17.0142 91.5751 15.7582 90.3158C15.0098 89.5656 14.2607 88.8161 13.5093 88.0688C12.6713 87.235 11.8384 86.3963 11.006 85.557C10.759 85.3126 10.5121 85.0681 10.2577 84.8163C8.6653 83.1997 7.40256 81.685 7.01094 79.3814C7.0141 79.0904 7.01727 78.7995 7.02052 78.4998C7.01578 78.0634 7.01578 78.0634 7.01094 77.6182C7.46569 74.9432 9.15062 73.2792 11.006 71.4425C11.2684 71.178 11.5308 70.9134 11.8012 70.6408C12.5168 69.9207 13.235 69.2035 13.9548 68.4876C14.7106 67.735 15.4633 66.9793 16.2166 66.2242C17.4816 64.9569 18.7491 63.6923 20.0182 62.4291C21.4815 60.9725 22.9404 59.5114 24.3971 58.048C25.6519 56.7876 26.9091 55.5296 28.1683 54.2736C28.9186 53.5252 29.6681 52.7761 30.4154 52.0247C31.2491 51.1867 32.0879 50.3538 32.9272 49.5213C33.2938 49.1509 33.2938 49.1509 33.6679 48.7731C35.5628 46.9065 37.356 45.5133 40.1377 45.5167C42.2889 45.5889 43.5358 46.1957 45.0511 47.68C46.288 49.0599 46.8189 50.3859 46.8455 52.2245C46.8542 52.4953 46.8629 52.766 46.8718 53.045C46.5058 55.4368 45.0428 57.0592 43.3661 58.6987C43.1536 58.9114 42.9411 59.1241 42.7221 59.3433C42.0248 60.0397 41.3233 60.7317 40.6216 61.4237C40.135 61.9081 39.6486 62.3927 39.1625 62.8776C37.8868 64.1486 36.6074 65.4159 35.3273 66.6825C34.0198 67.9774 32.7159 69.2758 31.4116 70.5738C28.8553 73.117 26.2951 75.6563 23.7324 78.1931C24.1294 79.0677 24.5454 79.6943 25.2282 80.3676C25.4083 80.5468 25.5884 80.726 25.774 80.9106C25.9711 81.1036 26.1681 81.2965 26.3711 81.4953C26.5791 81.7014 26.7871 81.9075 27.0014 82.1198C27.4528 82.5669 27.9049 83.0132 28.3576 83.459C29.0745 84.1652 29.7891 84.8735 30.5032 85.5825C32.5337 87.598 34.5675 89.61 36.6041 91.6192C37.85 92.8487 39.093 94.0812 40.3341 95.3156C40.8072 95.7849 41.2814 96.253 41.7568 96.7199C42.4225 97.3738 43.0844 98.0314 43.7455 98.6899C43.9419 98.881 44.1383 99.0721 44.3407 99.2689C45.9142 100.849 46.8612 102.391 46.8646 104.698C46.8016 106.616 46.3245 108.002 44.9877 109.395C43.4515 110.766 42.3144 111.4 40.2144 111.425Z" fill="#3684D8"/>
<path d="M115.59 111.029C113.741 109.947 112.426 108.446 111.738 106.404C111.635 105.603 111.635 105.603 111.623 104.775C111.615 104.504 111.606 104.234 111.597 103.955C111.963 101.563 113.426 99.9404 115.103 98.3009C115.315 98.0882 115.528 97.8755 115.747 97.6563C116.444 96.9599 117.145 96.2679 117.847 95.5758C118.334 95.0915 118.82 94.6069 119.306 94.122C120.582 92.8509 121.861 91.5836 123.141 90.317C124.449 89.0222 125.753 87.7238 127.057 86.4257C129.613 83.8825 132.174 81.3432 134.736 78.8064C134.339 77.9319 133.923 77.3053 133.241 76.6319C132.97 76.3631 132.97 76.3631 132.695 76.0889C132.498 75.896 132.301 75.7031 132.098 75.5043C131.89 75.2982 131.682 75.0921 131.467 74.8798C131.016 74.4327 130.564 73.9863 130.111 73.5406C129.394 72.8344 128.68 72.1261 127.966 71.4171C125.935 69.4016 123.901 67.3896 121.865 65.3803C120.619 64.1508 119.376 62.9183 118.135 61.684C117.662 61.2147 117.187 60.7466 116.712 60.2797C116.046 59.6258 115.384 58.9682 114.723 58.3096C114.527 58.1186 114.33 57.9275 114.128 57.7306C112.555 56.1502 111.608 54.6089 111.604 52.3012C111.667 50.3831 112.144 48.9972 113.481 47.6045C115.017 46.2335 116.154 45.5991 118.254 45.5743C118.585 45.5656 118.915 45.5569 119.256 45.5479C121.997 45.9105 123.678 47.6384 125.542 49.5214C125.806 49.7838 126.071 50.0462 126.343 50.3166C127.063 51.0322 127.781 51.7504 128.497 52.4702C129.249 53.226 130.005 53.9787 130.76 54.732C132.027 55.997 133.292 57.2645 134.555 58.5336C136.012 59.9969 137.473 61.4558 138.936 62.9125C140.197 64.1673 141.455 65.4245 142.711 66.6837C143.459 67.434 144.208 68.1835 144.959 68.9308C145.797 69.7645 146.63 70.6033 147.463 71.4426C147.71 71.687 147.957 71.9315 148.211 72.1833C149.803 73.7999 151.066 75.3145 151.458 77.6182C151.455 77.9091 151.452 78.2 151.448 78.4998C151.451 78.7907 151.455 79.0816 151.458 79.3814C151.003 82.0564 149.318 83.7203 147.463 85.557C147.2 85.8216 146.938 86.0862 146.668 86.3588C145.952 87.0788 145.234 87.7961 144.514 88.5119C143.758 89.2646 143.005 90.0202 142.252 90.7754C140.987 92.0426 139.72 93.3072 138.451 94.5704C136.987 96.0271 135.528 97.4882 134.072 98.9516C132.817 100.212 131.56 101.47 130.3 102.726C129.55 103.474 128.801 104.224 128.053 104.975C127.22 105.813 126.381 106.646 125.542 107.478C125.297 107.725 125.053 107.972 124.801 108.226C122.241 110.748 119.246 112.406 115.59 111.029Z" fill="#3584D7"/>
</svg>
