<svg width="33" height="33" viewBox="0 0 33 33" fill="none" xmlns="http://www.w3.org/2000/svg">
<rect width="32.9722" height="32.9722" rx="5" fill="white"/>
<path d="M13 29C15.2081 29 17.0001 27.208 17.0001 25V21H13C10.792 21 9 22.792 9 25C9 27.208 10.792 29 13 29Z" fill="#0ACF83"/>
<path d="M9 17.0001C9 14.7921 10.792 13 13 13H17.0001V20.9999H13C10.792 21 9 19.208 9 17.0001Z" fill="#A259FF"/>
<path d="M9 9.00003C9 6.79203 10.792 5 13 5H17.0001V12.9999H13C10.792 12.9999 9 11.208 9 9.00003Z" fill="#F24E1E"/>
<path d="M17 5H21.0001C23.2081 5 25.0001 6.79203 25.0001 9.00003C25.0001 11.208 23.2081 12.9999 21.0001 12.9999H17V5Z" fill="#FF7262"/>
<path d="M25.0001 17.0001C25.0001 19.208 23.2081 21 21.0001 21C18.792 21 17 19.208 17 17.0001C17 14.7921 18.792 13 21.0001 13C23.2081 13 25.0001 14.7921 25.0001 17.0001Z" fill="#1ABCFE"/>
</svg>
