<svg width="33" height="33" viewBox="0 0 33 33" fill="none" xmlns="http://www.w3.org/2000/svg">
<rect width="32.97" height="32.97" rx="6" fill="white"/>
<path d="M5.33789 5.23926H27.8297V27.7311H5.33789V5.23926Z" fill="#251200"/>
<path d="M27.8297 27.7311H5.33789V5.23926H27.8297V27.7311ZM7.7268 25.3424H25.4415V7.62777H7.7268V25.3424Z" fill="#F77800"/>
<path d="M13.0836 18.3487L12.3793 20.8871H10.061L13.0839 10.9976H16.0186L19.0853 20.8871H16.6789L15.9159 18.3487H13.0836ZM15.5929 16.6764L14.9767 14.578C14.8004 13.9912 14.6245 13.2575 14.4777 12.6704H14.4483C14.3014 13.2572 14.1549 14.0057 13.9935 14.578L13.4066 16.6764H15.5929Z" fill="#F77800"/>
<path d="M22.5485 11.7172C22.5485 12.3334 22.0789 12.8324 21.3452 12.8324C20.6411 12.8324 20.1718 12.3334 20.1864 11.7172C20.1718 11.0716 20.6412 10.5874 21.3598 10.5874C22.0789 10.5874 22.5337 11.0716 22.5485 11.7172ZM20.2448 20.8874V13.7126H22.475V20.8881L20.2448 20.8878V20.8874Z" fill="#F77800"/>
</svg>
