<svg width="32" height="33" viewBox="0 0 32 33" fill="none" xmlns="http://www.w3.org/2000/svg">
<rect width="31.1538" height="32.5769" rx="5" fill="white"/>
<path d="M16 13.2214C17.4946 13.2214 18.7217 14.4153 18.7217 15.8835C18.7215 17.3517 17.4945 18.5447 16 18.5447C14.5056 18.5447 13.2785 17.3516 13.2783 15.8835C13.2783 14.4153 14.5055 13.2215 16 13.2214ZM16 14.3601C15.1283 14.3602 14.4365 15.0406 14.4365 15.8835C14.4367 16.7262 15.1283 17.406 16 17.406C16.8718 17.406 17.5633 16.7263 17.5635 15.8835C17.5635 15.0406 16.8718 14.3601 16 14.3601Z" fill="#5ED3F3" stroke="#5ED3F3" stroke-width="0.3"/>
<path d="M16 10.7097C19.2567 10.7097 22.2132 11.2306 24.3994 12.1003L24.8008 12.2673C25.7158 12.6672 26.4849 13.136 27.0625 13.6794L27.2988 13.9187C27.8231 14.4906 28.1504 15.158 28.1504 15.8835C28.1503 16.6091 27.8232 17.2757 27.2988 17.8474L27.0625 18.0867C26.4848 18.6301 25.7158 19.0989 24.8008 19.4988L24.3994 19.6658C22.2131 20.5356 19.2568 21.0564 16 21.0564C12.9468 21.0564 10.1576 20.5988 8.01953 19.825L7.60059 19.6658C6.64438 19.2851 5.82784 18.8366 5.19629 18.3142L4.9375 18.0867C4.27705 17.4651 3.84971 16.7127 3.84961 15.8835C3.84961 15.0543 4.27669 14.3011 4.9375 13.6794L5.19629 13.4509C5.82776 12.9286 6.64455 12.4807 7.60059 12.1003L8.01953 11.9412C10.1577 11.1673 12.9468 10.7097 16 10.7097ZM16 11.8484C13.0623 11.8484 10.3924 12.2972 8.4209 13.0095L8.03516 13.156C7.03436 13.5543 6.25012 14.0213 5.73926 14.5017V14.5027C5.22848 14.9831 5.00781 15.4422 5.00781 15.8835C5.00791 16.3246 5.22825 16.7828 5.73926 17.2634L5.94336 17.4431C6.44945 17.8601 7.15928 18.2625 8.03516 18.6111L8.4209 18.7566C10.3927 19.4688 13.0623 19.9177 16 19.9177C19.1339 19.9177 21.9632 19.4076 23.9648 18.6111L24.3301 18.4587C25.1577 18.0957 25.8137 17.6839 26.2607 17.2634L26.4395 17.0847C26.8239 16.6689 26.9921 16.2696 26.9922 15.8835C26.9922 15.4974 26.8239 15.0973 26.4395 14.6814L26.2607 14.5017C25.8137 14.0814 25.1575 13.6712 24.3301 13.3083L23.9648 13.156C21.9629 12.3595 19.1337 11.8484 16 11.8484Z" fill="#5ED3F3" stroke="#5ED3F3" stroke-width="0.3"/>
<path d="M9.81006 5.10742C10.5196 4.76616 11.3539 4.78571 12.189 5.04102L12.5249 5.15527C13.3134 5.45142 14.1331 5.94717 14.9663 6.59961L15.3247 6.88867C17.1205 8.38602 18.9781 10.6157 20.5698 13.3057L20.8804 13.8428C22.3994 16.5299 23.3716 19.1843 23.7202 21.3936L23.7817 21.8301C23.8882 22.6906 23.8945 23.4817 23.7817 24.1807L23.7153 24.5225C23.5239 25.3579 23.1228 26.0744 22.4644 26.5039L22.3286 26.5859C21.6825 26.9498 20.921 26.992 20.144 26.8145L19.8101 26.7256C19.0309 26.4871 18.2181 26.0432 17.3892 25.4365L17.0337 25.167C15.2475 23.7683 13.3772 21.6197 11.7515 18.9922L11.4302 18.4609C9.83843 15.7711 8.78821 13.0862 8.35693 10.8193L8.27881 10.3721C8.09293 9.19446 8.08071 8.13343 8.28467 7.24316L8.37256 6.91602C8.60385 6.16886 9.02273 5.54517 9.66943 5.18066H9.67041L9.81006 5.10742ZM11.8452 6.12793C11.2372 5.94201 10.7643 5.94673 10.3979 6.0957L10.2466 6.16797C9.91109 6.35698 9.64686 6.701 9.47998 7.24707L9.41455 7.49414C9.25615 8.1857 9.25221 9.11396 9.42334 10.1982L9.49561 10.6113C9.89629 12.7106 10.8951 15.2938 12.4312 17.8896L12.7417 18.4023C14.3103 20.9358 16.111 22.9907 17.7554 24.2783L18.0815 24.5254C18.8369 25.0767 19.5461 25.4529 20.1538 25.6387L20.4058 25.707C20.976 25.8396 21.4151 25.7881 21.7515 25.5986L21.7583 25.5938C22.1384 25.3767 22.427 24.9599 22.5845 24.2725L22.6362 24.002C22.726 23.4399 22.7279 22.7505 22.6323 21.9678L22.5767 21.5684C22.2561 19.5357 21.3321 16.9876 19.8677 14.3955L19.5679 13.877C18.0318 11.2808 16.2381 9.1445 14.5747 7.75586L14.2446 7.48828C13.477 6.88721 12.7475 6.45861 12.1118 6.21875L11.8452 6.12793Z" fill="#5ED3F3" stroke="#5ED3F3" stroke-width="0.3"/>
<path d="M19.8101 5.0415C20.7008 4.76917 21.591 4.76513 22.3296 5.18115L22.4653 5.26318C23.1236 5.69258 23.5242 6.40832 23.7153 7.24365L23.7817 7.58545C23.8947 8.2844 23.8891 9.07536 23.7827 9.93604L23.7212 10.3726C23.3726 12.5817 22.4004 15.2362 20.8813 17.9233L20.5698 18.4614C18.9782 21.1512 17.1206 23.3812 15.3247 24.8784L14.9663 25.1675C14.1331 25.82 13.3134 26.3148 12.5249 26.6108L12.189 26.7261C11.2983 26.9984 10.409 27.0023 9.67041 26.5864L9.50439 26.4927L9.50928 26.4858C8.95345 26.1128 8.58426 25.5333 8.37256 24.8501L8.28467 24.5229C8.08073 23.6328 8.09297 22.5726 8.27881 21.395L8.35693 20.9468C8.78832 18.6798 9.83847 15.9949 11.4302 13.3052L11.7524 12.7729C13.3781 10.1458 15.2477 7.99748 17.0337 6.59912L17.3901 6.32861C18.2187 5.72233 19.0312 5.27971 19.8101 5.0415ZM21.7534 6.16748C21.4171 5.97811 20.9778 5.92672 20.4077 6.05908L20.1548 6.12744C19.5469 6.31329 18.8373 6.69016 18.0815 7.2417L17.7554 7.48779C16.111 8.77542 14.3112 10.8302 12.7427 13.3638L12.4321 13.8765C10.896 16.4725 9.89631 19.056 9.49561 21.1548L9.42334 21.5679C9.25222 22.6521 9.25711 23.5812 9.41553 24.2729L9.48096 24.52C9.64793 25.066 9.91275 25.4089 10.2485 25.5981L10.2534 25.6011C10.6374 25.815 11.1537 25.8508 11.8452 25.6392L12.1118 25.5483C12.7475 25.3083 13.4768 24.8791 14.2446 24.2778L14.5757 24.0103C16.239 22.6217 18.0329 20.4856 19.5688 17.8901L19.8687 17.3706C21.3328 14.7788 22.2558 12.2313 22.5767 10.1987L22.6323 9.79932C22.744 8.88547 22.7241 8.09876 22.5854 7.49365C22.4468 6.88836 22.2068 6.49251 21.8921 6.2583L21.7534 6.16748Z" fill="#5ED3F3" stroke="#5ED3F3" stroke-width="0.3"/>
</svg>
