<svg width="32" height="32" viewBox="0 0 32 32" fill="none" xmlns="http://www.w3.org/2000/svg">
<rect width="32" height="32" rx="5" fill="white"/>
<path d="M16.0375 8C12.5792 8 10.4208 9.62933 9.55556 12.8893C10.8514 11.2587 12.3653 10.6493 14.0931 11.056C15.0792 11.288 15.7833 11.9627 16.5625 12.7093C17.8347 13.9253 19.3403 15.3333 22.5181 15.3333C25.9764 15.3333 28.1347 13.704 29 10.444C27.7042 12.0747 26.1903 12.684 24.4625 12.2773C23.4764 12.0453 22.7722 11.3707 21.9931 10.624C20.7208 9.408 19.25 8 16.0375 8ZM10.4819 16.6667C7.02361 16.6667 4.86528 18.296 4 21.556C5.29583 19.9253 6.80972 19.316 8.5375 19.7227C9.52361 19.9547 10.2278 20.6293 11.0069 21.376C12.2792 22.592 13.75 24 16.9625 24C20.4208 24 22.5792 22.3707 23.4444 19.1107C22.1486 20.7413 20.6347 21.3507 18.9069 20.944C17.9208 20.712 17.2167 20.0373 16.4375 19.2907C15.1653 18.0747 13.6944 16.6667 10.4819 16.6667Z" fill="#36B6F2" stroke="#36B6F2" stroke-linecap="round" stroke-linejoin="round"/>
</svg>
