<svg width="70" height="70" viewBox="0 0 70 70" fill="none" xmlns="http://www.w3.org/2000/svg">
<rect width="70" height="70" rx="16" fill="white"/>
<mask id="mask0_438_16" style="mask-type:luminance" maskUnits="userSpaceOnUse" x="10" y="10" width="50" height="51">
<path d="M10 10H60V60.0004H10V10Z" fill="white"/>
</mask>
<g mask="url(#mask0_438_16)">
<path d="M13.5537 34.9997C13.5537 43.4892 18.4871 50.825 25.6409 54.3019L15.4105 26.2714C14.1841 29.0177 13.5514 31.992 13.5537 34.9997ZM49.4787 33.9174C49.4787 31.2669 48.5266 29.4313 47.71 28.0025C46.6229 26.2359 45.6043 24.7399 45.6043 22.9732C45.6043 21.0018 47.0991 19.1666 49.2053 19.1666C49.3004 19.1666 49.3905 19.1784 49.4836 19.1837C45.6675 15.688 40.584 13.5537 35.0005 13.5537C27.5079 13.5537 20.9161 17.3979 17.0812 23.2205C17.5844 23.2356 18.059 23.2458 18.4614 23.2458C20.7047 23.2458 24.1771 22.9737 24.1771 22.9737C25.3332 22.9055 25.4695 24.6036 24.315 24.7403C24.315 24.7403 23.1528 24.877 21.86 24.9447L29.67 48.1752L34.3639 34.099L31.022 24.9443C29.8671 24.8766 28.773 24.7399 28.773 24.7399C27.6173 24.6721 27.7528 22.9051 28.9085 22.9732C28.9085 22.9732 32.4503 23.2454 34.5577 23.2454C36.8006 23.2454 40.2734 22.9732 40.2734 22.9732C41.4303 22.9051 41.5662 24.6032 40.4109 24.7399C40.4109 24.7399 39.2467 24.8766 37.9563 24.9443L45.7067 47.999L47.8455 40.8504C48.7731 37.884 49.4787 35.7534 49.4787 33.9174Z" fill="#00749A"/>
<path d="M35.3771 36.8755L28.9424 55.5734C30.9097 56.1532 32.95 56.4475 35.0009 56.4475C37.4984 56.4475 39.8935 56.0154 42.1229 55.2318C42.0631 55.1382 42.012 55.0393 41.9702 54.9364L35.3771 36.8755ZM53.8195 24.71C53.9118 25.3931 53.964 26.1268 53.964 26.9153C53.964 29.0916 53.5576 31.5381 52.3333 34.5972L45.7822 53.5378C52.1582 49.8197 56.4468 42.912 56.4468 34.9995C56.4525 31.403 55.5488 27.8635 53.8195 24.71Z" fill="#00749A"/>
<path d="M35.0004 10C21.2155 10 10 21.2147 10 34.9996C10 48.7861 21.2151 60.0008 35.0004 60.0008C48.7849 60.0008 60.002 48.7865 60.002 34.9996C60.0016 21.2147 48.7849 10 35.0004 10ZM35.0004 58.8545C21.8477 58.8545 11.1463 48.1531 11.1463 34.9996C11.1463 21.8473 21.8473 11.1467 35.0004 11.1467C48.1527 11.1467 58.8533 21.8473 58.8533 34.9996C58.8533 48.1531 48.1523 58.8545 35.0004 58.8545Z" fill="#00749A"/>
</g>
</svg>
