<svg width="50" height="50" viewBox="0 0 50 50" fill="none" xmlns="http://www.w3.org/2000/svg">
<ellipse cx="25" cy="25.0006" rx="25" ry="25.0006" fill="white"/>
<path d="M3.55372 24.9993C3.55372 33.4887 8.48693 40.8244 15.6405 44.3013L5.41046 16.2712C4.18411 19.0175 3.5514 21.9917 3.55372 24.9993ZM39.4773 23.9171C39.4773 21.2666 38.5253 19.431 37.7087 18.0023C36.6216 16.2357 35.6031 14.7397 35.6031 12.9731C35.6031 11.0017 37.0978 9.1665 39.2039 9.1665C39.299 9.1665 39.3892 9.17833 39.4822 9.18364C35.6663 5.68799 30.5829 3.55371 24.9997 3.55371C17.5074 3.55371 10.9158 7.39786 7.08111 13.2204C7.58427 13.2355 8.05886 13.2457 8.46122 13.2457C10.7044 13.2457 14.1767 12.9735 14.1767 12.9735C15.3328 12.9054 15.4691 14.6034 14.3146 14.7401C14.3146 14.7401 13.1524 14.8768 11.8597 14.9446L19.6694 38.1747L24.3631 24.0987L21.0213 14.9442C19.8665 14.8764 18.7724 14.7397 18.7724 14.7397C17.6168 14.672 17.7523 12.905 18.9079 12.9731C18.9079 12.9731 22.4496 13.2453 24.5569 13.2453C26.7997 13.2453 30.2724 12.9731 30.2724 12.9731C31.4293 12.905 31.5652 14.603 30.4099 14.7397C30.4099 14.7397 29.2457 14.8764 27.9553 14.9442L35.7055 37.9985L37.8442 30.85C38.7718 27.8837 39.4773 25.7531 39.4773 23.9171Z" fill="#00749A"/>
<path d="M25.3754 26.8751L18.9409 45.5726C20.9081 46.1524 22.9483 46.4468 24.9992 46.4467C27.4966 46.4467 29.8916 46.0146 32.1209 45.2311C32.0611 45.1375 32.01 45.0386 31.9683 44.9356L25.3754 26.8751ZM43.8171 14.7097C43.9093 15.3928 43.9615 16.1266 43.9615 16.915C43.9615 19.0913 43.5551 21.5378 42.3309 24.5968L35.7801 43.5371C42.1558 39.8191 46.4442 32.9114 46.4442 24.9991C46.45 21.4027 45.5462 17.8632 43.8171 14.7097Z" fill="#00749A"/>
<path d="M24.9994 0C11.2151 0 0 11.2145 0 24.9992C0 38.7855 11.2147 50 24.9994 50C38.7833 50 50 38.7859 50 24.9992C49.9996 11.2145 38.7833 0 24.9994 0ZM24.9994 48.8537C11.8472 48.8537 1.14628 38.1525 1.14628 24.9992C1.14628 11.8471 11.8468 1.14671 24.9994 1.14671C38.1512 1.14671 48.8513 11.8471 48.8513 24.9992C48.8513 38.1525 38.1508 48.8537 24.9994 48.8537Z" fill="#00749A"/>
</svg>
