<svg width="81" height="81" viewBox="0 0 81 81" fill="none" xmlns="http://www.w3.org/2000/svg">
<g clip-path="url(#clip0_360_6)">
<path d="M40.6338 0.102407C40.7929 0.102744 40.952 0.103081 41.1159 0.103428C43.4009 0.111194 45.6343 0.160286 47.8799 0.619985C48.0356 0.650198 48.1913 0.68041 48.3518 0.711538C55.9145 2.20587 62.8198 5.70864 68.3486 11.0887C68.5055 11.2395 68.5055 11.2395 68.6655 11.3934C70.0619 12.7394 71.3747 14.1002 72.5246 15.664C72.7272 15.9372 72.935 16.2057 73.1442 16.4739C74.373 18.0699 75.3707 19.7821 76.3174 21.5575C76.4211 21.7513 76.4211 21.7513 76.5268 21.9491C78.3263 25.3715 79.5249 29.167 80.2236 32.9637C80.2488 33.0888 80.2739 33.2139 80.2998 33.3428C81.1579 37.73 81.1196 42.9621 80.2236 47.3387C80.1934 47.4945 80.1632 47.6502 80.1321 47.8106C78.8635 54.2307 76.1495 60.0267 72.0986 65.1512C71.9717 65.3134 71.8448 65.4755 71.7141 65.6426C69.7347 68.0747 67.4608 70.3526 64.9111 72.1825C64.7046 72.3352 64.4981 72.488 64.2916 72.6409C59.4114 76.2114 53.8255 78.5883 47.8799 79.6825C47.7548 79.7076 47.6297 79.7327 47.5008 79.7586C43.1153 80.6164 37.8796 80.5808 33.5049 79.6825C33.3467 79.6514 33.1885 79.6204 33.0255 79.5884C27.8078 78.545 22.5298 76.5732 18.1924 73.4325C18.0972 73.3636 18.002 73.2948 17.904 73.2238C17.1572 72.6806 16.4214 72.1243 15.6924 71.5575C15.6077 71.4918 15.523 71.4261 15.4357 71.3584C12.9903 69.4361 10.6738 67.1509 8.85012 64.6284C8.65272 64.3585 8.4487 64.0947 8.24304 63.831C7.01265 62.2347 6.01462 60.5214 5.06739 58.745C4.96372 58.5511 4.96372 58.5511 4.85796 58.3534C3.05847 54.931 1.85988 51.1355 1.16114 47.3387C1.12345 47.1511 1.12345 47.1511 1.08499 46.9596C0.226847 42.5725 0.265203 37.3403 1.16114 32.9637C1.20645 32.7302 1.20645 32.7302 1.25269 32.4919C2.72623 25.0343 6.15897 18.1131 11.4736 12.6512C11.5818 12.539 11.6901 12.4268 11.8015 12.3111C13.3232 10.7382 14.8483 9.23937 16.6299 7.96374C16.7148 7.90228 16.7996 7.84082 16.8871 7.7775C21.7174 4.29616 27.0882 1.93665 32.9189 0.737173C33.0331 0.713544 33.1473 0.689916 33.2649 0.665571C35.7171 0.192075 38.1424 0.0929213 40.6338 0.102407ZM43.1924 5.30749C43.1924 10.5153 43.1924 15.7231 43.1924 21.0887C45.82 21.0887 48.3699 21.0779 50.9756 20.8641C51.255 20.8427 51.5345 20.8215 51.8139 20.8003C52.9041 20.7162 53.9861 20.6293 55.0674 20.4637C54.4129 16.1182 51.2426 11.4827 48.1924 8.43249C48.0659 8.306 47.9394 8.17951 47.8091 8.04918C46.4303 6.74152 44.995 5.90835 43.1924 5.30749ZM32.9287 8.61803C31.9016 9.66228 31.035 10.8093 30.2236 12.0262C30.1633 12.1167 30.103 12.2072 30.0408 12.3004C27.511 16.0828 27.511 16.0828 26.3174 20.3075C30.2212 21.0118 34.2423 21.0887 38.1924 21.0887C38.1924 15.8809 38.1924 10.6731 38.1924 5.30749C36.3439 5.30749 34.164 7.40501 32.9287 8.61803ZM53.9736 7.49499C54.1776 7.91889 54.4014 8.31189 54.6609 8.70409C56.5601 11.6148 58.0838 14.6083 59.2892 17.8683C59.5375 18.5295 59.8021 19.1842 60.0674 19.8387C64.1541 19.3419 64.1541 19.3419 68.0361 18.12C67.7789 17.4883 67.335 17.0363 66.874 16.5477C66.7906 16.4585 66.7071 16.3694 66.6211 16.2775C66.3648 16.0051 66.1071 15.7341 65.8486 15.4637C65.7733 15.3847 65.6979 15.3057 65.6202 15.2242C62.3803 11.8489 58.3869 9.37792 54.1299 7.49499C54.0783 7.49499 54.0268 7.49499 53.9736 7.49499ZM27.2549 7.49499C22.0901 9.83319 17.017 13.0968 13.5049 17.6512C13.5049 17.7544 13.5049 17.8575 13.5049 17.9637C16.096 18.6393 18.6742 19.2482 21.3174 19.6825C21.7023 18.7636 22.0853 17.8441 22.4563 16.9194C23.609 14.0655 24.9002 11.3608 26.6756 8.83784C26.7892 8.67525 26.7892 8.67525 26.9052 8.50939C26.9728 8.4149 27.0404 8.32041 27.11 8.22306C27.293 7.94503 27.293 7.94503 27.2549 7.49499ZM10.3799 22.0262C8.30675 25.8085 6.79311 29.6421 5.95606 33.8817C5.93113 34.0059 5.90621 34.1301 5.88053 34.258C5.6602 35.4516 5.61853 36.5716 5.53613 37.8075C9.76426 37.8075 13.9924 37.8075 18.3486 37.8075C18.4356 36.773 18.5227 35.7385 18.6123 34.6727C18.8664 31.7824 19.2315 28.9432 19.7549 26.0887C19.8007 25.8356 19.8007 25.8356 19.8475 25.5773C19.9204 25.1748 19.9937 24.7724 20.0674 24.37C18.7803 24.0401 17.4889 23.7429 16.1904 23.4618C14.2393 23.0346 12.3076 22.5481 10.3799 22.0262ZM69.6957 22.5847C69.4901 22.6377 69.2846 22.6907 69.079 22.7436C68.971 22.7716 68.8629 22.7996 68.7516 22.8284C66.7941 23.3344 64.8417 23.7824 62.8484 24.1281C62.6132 24.1699 62.6132 24.1699 62.3733 24.2125C62.1682 24.2472 62.1682 24.2472 61.9589 24.2826C61.5988 24.3488 61.5988 24.3488 61.3174 24.6825C61.3374 25.0258 61.3374 25.0258 61.4358 25.4204C61.4689 25.5761 61.5019 25.7318 61.536 25.8922C61.5734 26.0634 61.6109 26.2346 61.6494 26.411C61.9851 28.0467 62.2424 29.6758 62.4404 31.3329C62.4766 31.6285 62.4766 31.6285 62.5134 31.9301C62.7414 33.8874 62.8787 35.8397 63.0361 37.8075C67.2643 37.8075 71.4924 37.8075 75.8486 37.8075C75.712 35.8729 75.712 35.8729 75.4287 33.9696C75.4018 33.8247 75.3749 33.6797 75.3472 33.5304C74.6359 29.8625 73.405 25.3917 71.1611 22.3387C70.6302 22.3387 70.2099 22.4502 69.6957 22.5847ZM24.9111 24.995C24.4721 26.6453 24.1236 28.2853 23.876 29.9755C23.8595 30.0851 23.8431 30.1948 23.8262 30.3077C23.4556 32.7932 23.1924 35.2925 23.1924 37.8075C28.1424 37.8075 33.0924 37.8075 38.1924 37.8075C38.1924 33.8887 38.1924 29.97 38.1924 25.9325C37.2417 25.8906 36.291 25.8487 35.3115 25.8055C32.5828 25.6782 29.8697 25.4756 27.1519 25.203C26.4054 25.129 25.6583 25.0614 24.9111 24.995ZM54.8684 25.2275C54.6687 25.2476 54.469 25.2677 54.2632 25.2884C54.1559 25.2995 54.0486 25.3106 53.938 25.322C50.3632 25.6877 46.7827 25.796 43.1924 25.9325C43.1924 29.8512 43.1924 33.77 43.1924 37.8075C48.1424 37.8075 53.0924 37.8075 58.1924 37.8075C58.0576 34.8024 58.0576 34.8024 57.7627 31.8212C57.743 31.6604 57.743 31.6604 57.7229 31.4963C57.4658 29.4116 57.0877 27.3577 56.6299 25.3075C56.0111 25.1517 55.5012 25.1595 54.8684 25.2275ZM5.53613 42.495C5.86021 47.3561 7.01206 53.5218 10.0294 57.5488C10.3686 57.8573 10.3686 57.8573 10.8354 57.7786C11.1 57.7041 11.1 57.7041 11.3699 57.628C11.4674 57.6019 11.5649 57.5758 11.6653 57.5489C11.8763 57.4921 12.0868 57.4336 12.2968 57.3738C12.855 57.215 13.4162 57.068 13.9773 56.92C14.0924 56.8894 14.2075 56.8587 14.3261 56.8271C15.5527 56.5041 16.7912 56.2517 18.0361 56.0106C18.1394 55.9905 18.2428 55.9703 18.3492 55.9495C18.9216 55.838 19.4943 55.7281 20.0674 55.62C20.047 55.5145 20.0266 55.4089 20.0056 55.3002C19.5813 53.0798 19.2143 50.8623 18.9443 48.618C18.9202 48.4195 18.8961 48.2211 18.8712 48.0166C18.6567 46.1779 18.5092 44.3414 18.3486 42.495C14.1205 42.495 9.89238 42.495 5.53613 42.495ZM23.1924 42.495C23.3287 45.3781 23.3287 45.3781 23.6221 48.2372C23.6419 48.3931 23.6419 48.3931 23.6621 48.5522C23.832 51.9399 23.832 51.9399 24.9111 54.8387C26.1287 54.89 27.3354 54.7631 28.5469 54.6562C31.7595 54.3743 34.9709 54.2098 38.1924 54.0575C38.1924 50.2419 38.1924 46.4262 38.1924 42.495C33.2424 42.495 28.2924 42.495 23.1924 42.495ZM43.1924 42.495C43.1924 46.3106 43.1924 50.1262 43.1924 54.0575C44.157 54.1539 45.1044 54.241 46.0702 54.2809C46.318 54.2921 46.5659 54.3034 46.8137 54.3148C46.9415 54.3206 47.0693 54.3264 47.201 54.3323C49.8972 54.4558 52.573 54.6611 55.2558 54.9569C55.6645 54.9926 56.0636 55.002 56.4736 54.995C57.6175 50.9125 57.9914 46.7158 58.1924 42.495C53.2424 42.495 48.2924 42.495 43.1924 42.495ZM63.0361 42.495C62.933 43.6809 62.8299 44.8669 62.7236 46.0887C62.6346 46.9396 62.543 47.7884 62.4404 48.6376C62.4277 48.7443 62.4149 48.851 62.4018 48.9609C62.1578 50.9821 61.8036 52.9714 61.3792 54.9632C61.3036 55.3261 61.3036 55.3261 61.3174 55.7762C61.457 55.8036 61.5967 55.831 61.7406 55.8593C64.3422 56.3732 66.9227 56.9072 69.4759 57.6302C69.7079 57.6959 69.7079 57.6959 69.9447 57.7629C70.0786 57.8018 70.2126 57.8407 70.3505 57.8807C70.7097 57.9822 70.7097 57.9822 71.1611 57.9637C73.2007 54.2801 74.6552 50.4797 75.4287 46.3329C75.4536 46.2 75.4786 46.067 75.5042 45.9301C75.7049 44.7767 75.764 43.6798 75.8486 42.495C71.6205 42.495 67.3924 42.495 63.0361 42.495ZM43.1924 58.9012C43.1924 64.109 43.1924 69.3169 43.1924 74.6825C45.1596 74.0268 46.5596 73.1522 48.0361 71.7137C48.2262 71.5382 48.2262 71.5382 48.42 71.3591C51.5277 68.4081 53.7629 64.0389 55.0674 59.995C55.0674 59.8919 55.0674 59.7887 55.0674 59.6825C52.5635 59.3907 50.0647 59.1657 47.5479 59.0282C47.4287 59.0215 47.3095 59.0149 47.1867 59.0081C45.8523 58.9346 44.5308 58.9012 43.1924 58.9012ZM34.2013 58.9586C34.0928 58.9647 33.9844 58.9708 33.8726 58.9771C33.5319 58.9965 33.1912 59.0171 32.8506 59.038C32.7332 59.0449 32.6158 59.0518 32.4948 59.059C31.0038 59.1473 29.5142 59.2473 28.0264 59.3798C27.8862 59.3921 27.7461 59.4045 27.6018 59.4172C26.9386 59.4676 26.9386 59.4676 26.3174 59.6825C27.3676 64.0364 29.9577 68.2046 33.0361 71.4012C33.1515 71.5283 33.267 71.6554 33.3859 71.7864C34.603 73.088 36.1917 74.0953 37.8799 74.6825C37.983 74.6825 38.0861 74.6825 38.1924 74.6825C38.1924 69.4747 38.1924 64.2669 38.1924 58.9012C36.1916 58.8916 36.1916 58.8916 34.2013 58.9586ZM19.6285 60.5095C19.5094 60.5325 19.3902 60.5555 19.2675 60.5793C19.0148 60.6284 18.7622 60.6782 18.5098 60.7287C18.1306 60.8042 17.7509 60.8772 17.3712 60.9499C15.9459 61.2274 14.5698 61.5604 13.1924 62.0262C13.5702 62.6783 14.0051 63.2177 14.5205 63.7645C14.6033 63.853 14.686 63.9415 14.7713 64.0326C15.0251 64.3025 15.2802 64.5709 15.5361 64.8387C15.6489 64.9569 15.6489 64.9569 15.7639 65.0775C18.6511 68.0854 22.1668 70.4013 25.9072 72.2118C26.0346 72.2742 26.162 72.3365 26.2932 72.4008C26.412 72.4567 26.5307 72.5125 26.6531 72.5701C26.7581 72.6198 26.8631 72.6696 26.9713 72.7209C27.2868 72.8472 27.2868 72.8472 27.7236 72.6512C27.6272 72.5205 27.5307 72.3898 27.4313 72.2551C25.0342 68.9767 23.1041 65.3643 21.8697 61.4854C21.8258 61.3525 21.7819 61.2196 21.7367 61.0826C21.6824 60.9081 21.6824 60.9081 21.6271 60.7301C21.4956 60.4461 21.4956 60.4461 21.221 60.3343C20.6734 60.2949 20.1626 60.4023 19.6285 60.5095ZM59.9111 60.4637C59.862 60.6034 59.862 60.6034 59.8118 60.746C58.3091 64.9758 56.4764 69.122 53.6611 72.6512C54.2322 72.8416 54.3282 72.7621 54.8574 72.5127C55.0029 72.4443 55.1483 72.3759 55.2982 72.3054C55.4541 72.2294 55.6099 72.1534 55.7705 72.0751C55.9309 71.9974 56.0913 71.9198 56.2565 71.8398C60.5593 69.7136 65.1864 66.4336 68.0361 62.495C68.0361 62.3919 68.0361 62.2887 68.0361 62.1825C66.5817 61.6975 65.1259 61.3453 63.6248 61.043C63.2664 60.9707 62.9083 60.8965 62.5503 60.822C62.32 60.7749 62.0897 60.7279 61.8594 60.681C61.7536 60.6591 61.6478 60.6371 61.5388 60.6145C60.988 60.5047 60.4728 60.4397 59.9111 60.4637Z" fill="#3584D7"/>
</g>
<defs>
<clipPath id="clip0_360_6">
<rect width="80" height="80" fill="white" transform="translate(0.692383 0.151123)"/>
</clipPath>
</defs>
</svg>
